<?xml version='1.0' encoding='utf-8'?>
<svg xmlns="http://www.w3.org/2000/svg" viewBox="0 0 1000 1000" width="1000" height="1000"><path d="M 339.005 44.841 L 339.020 46.672 L 339.046 48.493 L 339.081 50.303 L 339.127 52.104 L 339.183 53.894 L 339.249 55.675 L 339.325 57.445 L 339.411 59.205 L 339.507 60.954 L 339.614 62.694 L 339.730 64.423 L 339.857 66.143 L 339.994 67.852 L 340.141 69.551 L 340.298 71.240 L 340.466 72.919 L 340.643 74.587 L 340.831 76.246 L 341.029 77.894 L 341.237 79.533 L 341.455 81.161 L 341.683 82.779 L 341.921 84.386 L 342.170 85.984 L 342.429 87.571 L 342.697 89.149 L 342.976 90.716 L 343.265 92.273 L 343.565 93.820 L 343.874 95.357 L 344.194 96.883 L 344.523 98.400 L 344.863 99.906 L 345.213 101.402 L 345.573 102.888 L 345.943 104.364 L 346.324 105.830 L 346.714 107.286 L 347.115 108.731 L 347.526 110.167 L 347.947 111.592 L 348.378 113.007 L 348.819 114.412 L 349.270 115.806 L 349.732 117.191 L 350.204 118.566 L 350.686 119.930 L 351.178 121.284 L 351.680 122.628 L 352.192 123.962 L 352.714 125.286 L 353.247 126.599 L 353.790 127.903 L 354.342 129.196 L 354.905 130.479 L 355.478 131.752 L 356.062 133.015 L 356.655 134.268 L 357.259 135.511 L 357.872 136.743 L 358.496 137.965 L 359.130 139.178 L 359.774 140.380 L 360.429 141.571 L 361.093 142.753 L 361.768 143.925 L 362.452 145.086 L 363.147 146.238 L 363.852 147.379 L 364.567 148.510 L 365.292 149.631 L 366.028 150.741 L 366.773 151.842 L 367.529 152.932 L 368.295 154.013 L 369.071 155.083 L 369.857 156.143 L 370.653 157.193 L 371.460 158.232 L 372.276 159.262 L 373.103 160.281 L 373.940 161.291 L 374.787 162.290 L 375.644 163.279 L 376.511 164.258 L 377.389 165.227 L 378.276 166.185 L 379.174 167.134 L 380.082 168.072 L 381.000 169.000 L 381.928 169.918 L 382.866 170.826 L 383.050 171.000 L 789.000 171.000 L 797.874 171.997 L 806.307 174.938 L 813.876 179.676 L 820.206 185.976 L 824.980 193.523 L 827.961 201.941 L 829.000 210.811 L 828.045 219.690 L 825.144 228.136 L 820.441 235.728 L 814.171 242.087 L 806.647 246.897 L 798.243 249.917 L 789.000 251.000 L 383.050 251.000 L 382.866 251.174 L 381.928 252.082 L 381.000 253.000 L 380.082 253.928 L 379.174 254.866 L 379.000 255.050 L 379.000 491.950 L 379.174 492.134 L 380.082 493.072 L 381.000 494.000 L 381.928 494.918 L 382.866 495.826 L 383.050 496.000 L 689.000 496.000 L 697.874 496.997 L 706.307 499.938 L 713.876 504.676 L 720.206 510.976 L 724.980 518.523 L 727.961 526.941 L 729.000 535.811 L 728.045 544.690 L 725.144 553.136 L 720.441 560.728 L 714.171 567.087 L 706.647 571.897 L 698.243 574.917 L 689.000 576.000 L 383.050 576.000 L 382.866 576.174 L 381.928 577.082 L 381.000 578.000 L 380.082 578.928 L 379.174 579.866 L 379.000 580.050 L 379.000 848.934 L 380.041 849.497 L 381.257 850.127 L 382.491 850.740 L 383.743 851.334 L 385.012 851.911 L 386.299 852.470 L 387.604 853.012 L 388.926 853.536 L 390.266 854.041 L 391.624 854.530 L 393.000 855.000 L 394.393 855.453 L 395.805 855.888 L 397.234 856.305 L 398.680 856.704 L 400.145 857.086 L 401.627 857.450 L 403.127 857.796 L 404.645 858.124 L 406.180 858.435 L 407.734 858.728 L 409.305 859.003 L 410.893 859.260 L 412.500 859.500 L 414.124 859.722 L 415.766 859.926 L 417.426 860.112 L 419.104 860.281 L 420.799 860.432 L 422.512 860.565 L 424.243 860.680 L 425.991 860.778 L 427.757 860.858 L 429.541 860.920 L 431.343 860.964 L 433.163 860.991 L 435.000 861.000 L 433.163 861.009 L 431.343 861.036 L 429.541 861.080 L 427.757 861.142 L 425.991 861.222 L 424.243 861.320 L 422.512 861.435 L 420.799 861.568 L 419.104 861.719 L 417.426 861.888 L 415.766 862.074 L 414.124 862.278 L 412.500 862.500 L 410.893 862.740 L 409.305 862.997 L 407.734 863.272 L 406.180 863.565 L 404.645 863.876 L 403.127 864.204 L 401.627 864.550 L 400.145 864.914 L 398.680 865.296 L 397.234 865.695 L 395.805 866.112 L 394.393 866.547 L 393.000 867.000 L 391.624 867.470 L 390.266 867.959 L 388.926 868.464 L 387.604 868.988 L 386.299 869.530 L 385.012 870.089 L 383.743 870.666 L 382.491 871.260 L 381.257 871.873 L 380.041 872.503 L 378.843 873.151 L 377.663 873.817 L 376.500 874.500 L 376.360 874.586 L 375.062 878.307 L 370.324 885.876 L 364.024 892.206 L 356.477 896.980 L 352.587 898.357 L 352.500 898.500 L 351.817 899.663 L 351.151 900.843 L 350.503 902.041 L 349.873 903.257 L 349.260 904.491 L 348.666 905.743 L 348.089 907.012 L 347.530 908.299 L 346.988 909.604 L 346.464 910.926 L 345.959 912.266 L 345.470 913.624 L 345.000 915.000 L 344.547 916.393 L 344.112 917.805 L 343.695 919.234 L 343.296 920.680 L 342.914 922.145 L 342.550 923.627 L 342.204 925.127 L 341.876 926.645 L 341.565 928.180 L 341.272 929.734 L 340.997 931.305 L 340.740 932.893 L 340.500 934.500 L 340.278 936.124 L 340.074 937.766 L 339.888 939.426 L 339.719 941.104 L 339.568 942.799 L 339.435 944.512 L 339.320 946.243 L 339.222 947.991 L 339.142 949.757 L 339.080 951.541 L 339.036 953.343 L 339.009 955.163 L 339.000 957.000 L 338.991 955.163 L 338.964 953.343 L 338.920 951.541 L 338.858 949.757 L 338.778 947.991 L 338.680 946.243 L 338.565 944.512 L 338.432 942.799 L 338.281 941.104 L 338.112 939.426 L 337.926 937.766 L 337.722 936.124 L 337.500 934.500 L 337.260 932.893 L 337.003 931.305 L 336.728 929.734 L 336.435 928.180 L 336.124 926.645 L 335.796 925.127 L 335.450 923.627 L 335.086 922.145 L 334.704 920.680 L 334.305 919.234 L 333.888 917.805 L 333.453 916.393 L 333.000 915.000 L 332.530 913.624 L 332.041 912.266 L 331.536 910.926 L 331.012 909.604 L 330.470 908.299 L 329.911 907.012 L 329.334 905.743 L 328.740 904.491 L 328.127 903.257 L 327.497 902.041 L 326.849 900.843 L 326.183 899.663 L 325.500 898.500 L 325.417 898.364 L 321.864 897.144 L 314.272 892.441 L 307.913 886.171 L 303.103 878.647 L 301.645 874.589 L 301.500 874.500 L 300.337 873.817 L 299.157 873.151 L 297.959 872.503 L 296.743 871.873 L 295.509 871.260 L 294.257 870.666 L 292.988 870.089 L 291.701 869.530 L 290.396 868.988 L 289.074 868.464 L 287.734 867.959 L 286.376 867.470 L 285.000 867.000 L 283.607 866.547 L 282.195 866.112 L 280.766 865.695 L 279.320 865.296 L 277.855 864.914 L 276.373 864.550 L 274.873 864.204 L 273.355 863.876 L 271.820 863.565 L 270.266 863.272 L 268.695 862.997 L 267.107 862.740 L 265.500 862.500 L 263.876 862.278 L 262.234 862.074 L 260.574 861.888 L 258.896 861.719 L 257.201 861.568 L 255.488 861.435 L 253.757 861.320 L 252.009 861.222 L 250.243 861.142 L 248.459 861.080 L 246.657 861.036 L 244.837 861.009 L 243.000 861.000 L 244.837 860.991 L 246.657 860.964 L 248.459 860.920 L 250.243 860.858 L 252.009 860.778 L 253.757 860.680 L 255.488 860.565 L 257.201 860.432 L 258.896 860.281 L 260.574 860.112 L 262.234 859.926 L 263.876 859.722 L 265.500 859.500 L 267.107 859.260 L 268.695 859.003 L 270.266 858.728 L 271.820 858.435 L 273.355 858.124 L 274.873 857.796 L 276.373 857.450 L 277.855 857.086 L 279.320 856.704 L 280.766 856.305 L 282.195 855.888 L 283.607 855.453 L 285.000 855.000 L 286.376 854.530 L 287.734 854.041 L 289.074 853.536 L 290.396 853.012 L 291.701 852.470 L 292.988 851.911 L 294.257 851.334 L 295.509 850.740 L 296.743 850.127 L 297.959 849.497 L 299.000 848.934 L 299.000 580.050 L 298.826 579.866 L 297.918 578.928 L 297.000 578.000 L 296.072 577.082 L 295.134 576.174 L 294.185 575.276 L 293.227 574.389 L 292.258 573.511 L 291.279 572.644 L 290.290 571.787 L 289.291 570.940 L 288.281 570.103 L 287.262 569.276 L 286.232 568.460 L 285.193 567.653 L 284.143 566.857 L 283.083 566.071 L 282.013 565.295 L 280.932 564.529 L 279.842 563.773 L 278.741 563.028 L 277.631 562.292 L 276.510 561.567 L 275.379 560.852 L 274.238 560.147 L 273.086 559.452 L 271.925 558.768 L 270.753 558.093 L 269.571 557.429 L 268.380 556.774 L 267.178 556.130 L 265.965 555.496 L 264.743 554.872 L 263.511 554.259 L 262.268 553.655 L 261.015 553.062 L 259.752 552.478 L 258.479 551.905 L 257.196 551.342 L 255.903 550.790 L 254.599 550.247 L 253.286 549.714 L 251.962 549.192 L 250.628 548.680 L 249.284 548.178 L 247.930 547.686 L 246.566 547.204 L 245.191 546.732 L 243.806 546.270 L 242.412 545.819 L 241.007 545.378 L 239.592 544.947 L 238.167 544.526 L 236.731 544.115 L 235.286 543.714 L 233.830 543.324 L 232.364 542.943 L 230.888 542.573 L 229.402 542.213 L 227.906 541.863 L 226.400 541.523 L 224.883 541.194 L 223.357 540.874 L 221.820 540.565 L 220.273 540.265 L 218.716 539.976 L 217.149 539.697 L 215.571 539.429 L 213.984 539.170 L 212.386 538.921 L 210.779 538.683 L 209.161 538.455 L 207.533 538.237 L 205.894 538.029 L 204.246 537.831 L 202.587 537.643 L 200.919 537.466 L 199.240 537.298 L 197.551 537.141 L 195.852 536.994 L 194.143 536.857 L 192.423 536.730 L 190.694 536.614 L 188.954 536.507 L 187.205 536.411 L 185.445 536.325 L 183.675 536.249 L 181.894 536.183 L 180.104 536.127 L 178.303 536.081 L 176.493 536.046 L 174.672 536.020 L 172.841 536.005 L 171.000 536.000 L 172.841 535.995 L 174.672 535.980 L 176.493 535.954 L 178.303 535.919 L 180.104 535.873 L 181.894 535.817 L 183.675 535.751 L 185.445 535.675 L 187.205 535.589 L 188.954 535.493 L 190.694 535.386 L 192.423 535.270 L 194.143 535.143 L 195.852 535.006 L 197.551 534.859 L 199.240 534.702 L 200.919 534.534 L 202.587 534.357 L 204.246 534.169 L 205.894 533.971 L 207.533 533.763 L 209.161 533.545 L 210.779 533.317 L 212.386 533.079 L 213.984 532.830 L 215.571 532.571 L 217.149 532.303 L 218.716 532.024 L 220.273 531.735 L 221.820 531.435 L 223.357 531.126 L 224.883 530.806 L 226.400 530.477 L 227.906 530.137 L 229.402 529.787 L 230.888 529.427 L 232.364 529.057 L 233.830 528.676 L 235.286 528.286 L 236.731 527.885 L 238.167 527.474 L 239.592 527.053 L 241.007 526.622 L 242.412 526.181 L 243.806 525.730 L 245.191 525.268 L 246.566 524.796 L 247.930 524.314 L 249.284 523.822 L 250.628 523.320 L 251.962 522.808 L 253.286 522.286 L 254.599 521.753 L 255.903 521.210 L 257.196 520.658 L 258.479 520.095 L 259.752 519.522 L 261.015 518.938 L 262.268 518.345 L 263.511 517.741 L 264.743 517.128 L 265.965 516.504 L 267.178 515.870 L 268.380 515.226 L 269.571 514.571 L 270.753 513.907 L 271.925 513.232 L 273.086 512.548 L 274.238 511.853 L 275.379 511.148 L 276.510 510.433 L 277.631 509.708 L 278.741 508.972 L 279.842 508.227 L 280.932 507.471 L 282.013 506.705 L 283.083 505.929 L 284.143 505.143 L 285.193 504.347 L 286.232 503.540 L 287.262 502.724 L 288.281 501.897 L 289.291 501.060 L 290.290 500.213 L 291.279 499.356 L 292.258 498.489 L 293.227 497.611 L 294.185 496.724 L 295.134 495.826 L 296.072 494.918 L 297.000 494.000 L 297.918 493.072 L 298.826 492.134 L 299.000 491.950 L 299.000 255.050 L 298.826 254.866 L 297.918 253.928 L 297.000 253.000 L 296.072 252.082 L 295.134 251.174 L 294.185 250.276 L 293.227 249.389 L 292.258 248.511 L 291.279 247.644 L 290.290 246.787 L 289.291 245.940 L 288.281 245.103 L 287.262 244.276 L 286.232 243.460 L 285.193 242.653 L 284.143 241.857 L 283.083 241.071 L 282.013 240.295 L 280.932 239.529 L 279.842 238.773 L 278.741 238.028 L 277.631 237.292 L 276.510 236.567 L 275.379 235.852 L 274.238 235.147 L 273.086 234.452 L 271.925 233.768 L 270.753 233.093 L 269.571 232.429 L 268.380 231.774 L 267.178 231.130 L 265.965 230.496 L 264.743 229.872 L 263.511 229.259 L 262.268 228.655 L 261.015 228.062 L 259.752 227.478 L 258.479 226.905 L 257.196 226.342 L 255.903 225.790 L 254.599 225.247 L 253.286 224.714 L 251.962 224.192 L 250.628 223.680 L 249.284 223.178 L 247.930 222.686 L 246.566 222.204 L 245.191 221.732 L 243.806 221.270 L 242.412 220.819 L 241.007 220.378 L 239.592 219.947 L 238.167 219.526 L 236.731 219.115 L 235.286 218.714 L 233.830 218.324 L 232.364 217.943 L 230.888 217.573 L 229.402 217.213 L 227.906 216.863 L 226.400 216.523 L 224.883 216.194 L 223.357 215.874 L 221.820 215.565 L 220.273 215.265 L 218.716 214.976 L 217.149 214.697 L 215.571 214.429 L 213.984 214.170 L 212.386 213.921 L 210.779 213.683 L 209.161 213.455 L 207.533 213.237 L 205.894 213.029 L 204.246 212.831 L 202.587 212.643 L 200.919 212.466 L 199.240 212.298 L 197.551 212.141 L 195.852 211.994 L 194.143 211.857 L 192.423 211.730 L 190.694 211.614 L 188.954 211.507 L 187.205 211.411 L 185.445 211.325 L 183.675 211.249 L 181.894 211.183 L 180.104 211.127 L 178.303 211.081 L 176.493 211.046 L 174.672 211.020 L 172.841 211.005 L 171.000 211.000 L 172.841 210.995 L 174.672 210.980 L 176.493 210.954 L 178.303 210.919 L 180.104 210.873 L 181.894 210.817 L 183.675 210.751 L 185.445 210.675 L 187.205 210.589 L 188.954 210.493 L 190.694 210.386 L 192.423 210.270 L 194.143 210.143 L 195.852 210.006 L 197.551 209.859 L 199.240 209.702 L 200.919 209.534 L 202.587 209.357 L 204.246 209.169 L 205.894 208.971 L 207.533 208.763 L 209.161 208.545 L 210.779 208.317 L 212.386 208.079 L 213.984 207.830 L 215.571 207.571 L 217.149 207.303 L 218.716 207.024 L 220.273 206.735 L 221.820 206.435 L 223.357 206.126 L 224.883 205.806 L 226.400 205.477 L 227.906 205.137 L 229.402 204.787 L 230.888 204.427 L 232.364 204.057 L 233.830 203.676 L 235.286 203.286 L 236.731 202.885 L 238.167 202.474 L 239.592 202.053 L 241.007 201.622 L 242.412 201.181 L 243.806 200.730 L 245.191 200.268 L 246.566 199.796 L 247.930 199.314 L 249.284 198.822 L 250.628 198.320 L 251.962 197.808 L 253.286 197.286 L 254.599 196.753 L 255.903 196.210 L 257.196 195.658 L 258.479 195.095 L 259.752 194.522 L 261.015 193.938 L 262.268 193.345 L 263.511 192.741 L 264.743 192.128 L 265.965 191.504 L 267.178 190.870 L 268.380 190.226 L 269.571 189.571 L 270.753 188.907 L 271.925 188.232 L 273.086 187.548 L 274.238 186.853 L 275.379 186.148 L 276.510 185.433 L 277.631 184.708 L 278.741 183.972 L 279.842 183.227 L 280.932 182.471 L 282.013 181.705 L 283.083 180.929 L 284.143 180.143 L 285.193 179.347 L 286.232 178.540 L 287.262 177.724 L 288.281 176.897 L 289.291 176.060 L 290.290 175.213 L 291.279 174.356 L 292.258 173.489 L 293.227 172.611 L 294.185 171.724 L 295.134 170.826 L 296.072 169.918 L 297.000 169.000 L 297.918 168.072 L 298.826 167.134 L 299.724 166.185 L 300.611 165.227 L 301.489 164.258 L 302.356 163.279 L 303.213 162.290 L 304.060 161.291 L 304.897 160.281 L 305.724 159.262 L 306.540 158.232 L 307.347 157.193 L 308.143 156.143 L 308.929 155.083 L 309.705 154.013 L 310.471 152.932 L 311.227 151.842 L 311.972 150.741 L 312.708 149.631 L 313.433 148.510 L 314.148 147.379 L 314.853 146.238 L 315.548 145.086 L 316.232 143.925 L 316.907 142.753 L 317.571 141.571 L 318.226 140.380 L 318.870 139.178 L 319.504 137.965 L 320.128 136.743 L 320.741 135.511 L 321.345 134.268 L 321.938 133.015 L 322.522 131.752 L 323.095 130.479 L 323.658 129.196 L 324.210 127.903 L 324.753 126.599 L 325.286 125.286 L 325.808 123.962 L 326.320 122.628 L 326.822 121.284 L 327.314 119.930 L 327.796 118.566 L 328.268 117.191 L 328.730 115.806 L 329.181 114.412 L 329.622 113.007 L 330.053 111.592 L 330.474 110.167 L 330.885 108.731 L 331.286 107.286 L 331.676 105.830 L 332.057 104.364 L 332.427 102.888 L 332.787 101.402 L 333.137 99.906 L 333.477 98.400 L 333.806 96.883 L 334.126 95.357 L 334.435 93.820 L 334.735 92.273 L 335.024 90.716 L 335.303 89.149 L 335.571 87.571 L 335.830 85.984 L 336.079 84.386 L 336.317 82.779 L 336.545 81.161 L 336.763 79.533 L 336.971 77.894 L 337.169 76.246 L 337.357 74.587 L 337.534 72.919 L 337.702 71.240 L 337.859 69.551 L 338.006 67.852 L 338.143 66.143 L 338.270 64.423 L 338.386 62.694 L 338.493 60.954 L 338.589 59.205 L 338.675 57.445 L 338.751 55.675 L 338.817 53.894 L 338.873 52.104 L 338.919 50.303 L 338.954 48.493 L 338.980 46.672 L 338.995 44.841 L 339.000 43.000 Z" fill="#000000" /></svg>